<svg xmlns="http://www.w3.org/2000/svg" viewBox="0 0 1600 900" width="1600" height="900" role="img" aria-hidden="true">
  <defs>
    <linearGradient id="bg" x1="0" y1="0" x2="0.85" y2="1">
      <stop offset="0" stop-color="#FFFFFF"/>
      <stop offset="1" stop-color="#EDF1F5"/>
    </linearGradient>
  </defs>
  <rect width="1600" height="900" fill="url(#bg)"/>
  <!-- bloque diagonal de marca muy suave -->
  <polygon points="928,0 1600,0 1600,900 480,900" fill="#EEF3F8" opacity="0.9"/>
  <polygon points="0,900 352,900 0,495" fill="#EEF3F8" opacity="0.7"/>
  <!-- grilla horizontal tenue (navy-100) -->
  <g stroke="#DCE7F1" stroke-width="1.4" opacity="0.7"><line x1="0" y1="75" x2="1600" y2="75"/><line x1="0" y1="150" x2="1600" y2="150"/><line x1="0" y1="225" x2="1600" y2="225"/><line x1="0" y1="300" x2="1600" y2="300"/><line x1="0" y1="375" x2="1600" y2="375"/><line x1="0" y1="450" x2="1600" y2="450"/><line x1="0" y1="525" x2="1600" y2="525"/><line x1="0" y1="600" x2="1600" y2="600"/><line x1="0" y1="675" x2="1600" y2="675"/><line x1="0" y1="750" x2="1600" y2="750"/><line x1="0" y1="825" x2="1600" y2="825"/></g>
  <!-- líneas de cancha tenues (navy-200) -->
  <g stroke="#BBD2E6" stroke-width="2" fill="none" opacity="0.75">
    <line x1="800" y1="0" x2="800" y2="900"/>
    <circle cx="800" cy="450" r="117"/>
    <line x1="0" y1="450" x2="1600" y2="450"/>
  </g>
  <!-- etiqueta grande fantasma -->
  <text x="72" y="540" font-family="Archivo, Arial, sans-serif" font-weight="800" font-size="104" fill="#BBD2E6" opacity="0.55" letter-spacing="-1">JUNIOR FC</text>
  <!-- ícono + kicker navy -->
  <circle cx="105.75" cy="380.25" r="33.75" fill="#294D6E"/><path d="M94.275 366.075 L121.275 380.25 L94.275 394.425 Z" fill="#fff"/>
  <text x="158" y="395" font-family="Inter, Arial, sans-serif" font-weight="600" font-size="27" fill="#294D6E" letter-spacing="3">JUNIOR FC · VIDEO</text>
  <!-- monograma HD (marca de agua) -->
  <text x="1528" y="850" text-anchor="end" font-family="Archivo, Arial, sans-serif" font-weight="800" font-size="56" fill="#BBD2E6" opacity="0.6" letter-spacing="2">HD</text>
</svg>
